<mxfile host="app.diagrams.net" modified="2021-05-14T03:26:49.109Z" agent="5.0 (Macintosh; Intel Mac OS X 10_15_7) AppleWebKit/537.36 (KHTML, like Gecko) Chrome/90.0.4430.212 Safari/537.36" etag="fxnSqn6-auHiECp43gKo" version="13.9.2" type="github">
  <diagram id="C5RBs43oDa-KdzZeNtuy" name="Page-1">
    <mxGraphModel dx="2253" dy="826" grid="1" gridSize="10" guides="1" tooltips="1" connect="1" arrows="1" fold="1" page="1" pageScale="1" pageWidth="827" pageHeight="1169" math="0" shadow="0">
      <root>
        <mxCell id="WIyWlLk6GJQsqaUBKTNV-0" />
        <mxCell id="WIyWlLk6GJQsqaUBKTNV-1" parent="WIyWlLk6GJQsqaUBKTNV-0" />
        <mxCell id="WIyWlLk6GJQsqaUBKTNV-2" value="" style="rounded=0;html=1;jettySize=auto;orthogonalLoop=1;fontSize=11;endArrow=block;endFill=0;endSize=8;strokeWidth=1;shadow=0;labelBackgroundColor=none;edgeStyle=orthogonalEdgeStyle;" parent="WIyWlLk6GJQsqaUBKTNV-1" source="WIyWlLk6GJQsqaUBKTNV-3" target="WIyWlLk6GJQsqaUBKTNV-6" edge="1">
          <mxGeometry relative="1" as="geometry" />
        </mxCell>
        <mxCell id="WIyWlLk6GJQsqaUBKTNV-3" value="Single Ne (flase、ative) Alarm List" style="rounded=1;whiteSpace=wrap;html=1;fontSize=12;glass=0;strokeWidth=1;shadow=0;" parent="WIyWlLk6GJQsqaUBKTNV-1" vertex="1">
          <mxGeometry x="160" y="80" width="190" height="40" as="geometry" />
        </mxCell>
        <mxCell id="WIyWlLk6GJQsqaUBKTNV-5" value="No" style="edgeStyle=orthogonalEdgeStyle;rounded=0;html=1;jettySize=auto;orthogonalLoop=1;fontSize=11;endArrow=block;endFill=0;endSize=8;strokeWidth=1;shadow=0;labelBackgroundColor=none;" parent="WIyWlLk6GJQsqaUBKTNV-1" source="WIyWlLk6GJQsqaUBKTNV-6" target="WIyWlLk6GJQsqaUBKTNV-7" edge="1">
          <mxGeometry y="10" relative="1" as="geometry">
            <mxPoint as="offset" />
          </mxGeometry>
        </mxCell>
        <mxCell id="a_u_-c7IayEmLX05P0dK-6" value="Yes" style="edgeStyle=orthogonalEdgeStyle;rounded=0;orthogonalLoop=1;jettySize=auto;html=1;" edge="1" parent="WIyWlLk6GJQsqaUBKTNV-1" source="WIyWlLk6GJQsqaUBKTNV-6">
          <mxGeometry relative="1" as="geometry">
            <mxPoint x="255.5" y="340" as="targetPoint" />
          </mxGeometry>
        </mxCell>
        <mxCell id="WIyWlLk6GJQsqaUBKTNV-6" value="is exist&lt;br&gt;otn_alarm_sublist&lt;br&gt;(neId、faultId)" style="rhombus;whiteSpace=wrap;html=1;shadow=0;fontFamily=Helvetica;fontSize=12;align=center;strokeWidth=1;spacing=6;spacingTop=-4;" parent="WIyWlLk6GJQsqaUBKTNV-1" vertex="1">
          <mxGeometry x="180" y="161" width="151" height="111" as="geometry" />
        </mxCell>
        <mxCell id="a_u_-c7IayEmLX05P0dK-26" style="edgeStyle=orthogonalEdgeStyle;rounded=0;orthogonalLoop=1;jettySize=auto;html=1;entryX=0.5;entryY=0;entryDx=0;entryDy=0;" edge="1" parent="WIyWlLk6GJQsqaUBKTNV-1" source="WIyWlLk6GJQsqaUBKTNV-7" target="a_u_-c7IayEmLX05P0dK-3">
          <mxGeometry relative="1" as="geometry" />
        </mxCell>
        <mxCell id="WIyWlLk6GJQsqaUBKTNV-7" value="insert&amp;nbsp; otn_alarm_sublist" style="rounded=1;whiteSpace=wrap;html=1;fontSize=12;glass=0;strokeWidth=1;shadow=0;" parent="WIyWlLk6GJQsqaUBKTNV-1" vertex="1">
          <mxGeometry x="414" y="196.5" width="126" height="40" as="geometry" />
        </mxCell>
        <mxCell id="a_u_-c7IayEmLX05P0dK-19" style="edgeStyle=orthogonalEdgeStyle;rounded=0;orthogonalLoop=1;jettySize=auto;html=1;entryX=0;entryY=0.5;entryDx=0;entryDy=0;" edge="1" parent="WIyWlLk6GJQsqaUBKTNV-1" source="a_u_-c7IayEmLX05P0dK-3" target="a_u_-c7IayEmLX05P0dK-20">
          <mxGeometry relative="1" as="geometry">
            <mxPoint x="675.5" y="330" as="targetPoint" />
          </mxGeometry>
        </mxCell>
        <mxCell id="a_u_-c7IayEmLX05P0dK-21" value="No" style="edgeLabel;html=1;align=center;verticalAlign=middle;resizable=0;points=[];" vertex="1" connectable="0" parent="a_u_-c7IayEmLX05P0dK-19">
          <mxGeometry x="-0.4138" relative="1" as="geometry">
            <mxPoint as="offset" />
          </mxGeometry>
        </mxCell>
        <mxCell id="a_u_-c7IayEmLX05P0dK-23" value="Yes" style="edgeStyle=orthogonalEdgeStyle;rounded=0;orthogonalLoop=1;jettySize=auto;html=1;" edge="1" parent="WIyWlLk6GJQsqaUBKTNV-1" source="a_u_-c7IayEmLX05P0dK-3">
          <mxGeometry relative="1" as="geometry">
            <mxPoint x="477" y="490" as="targetPoint" />
          </mxGeometry>
        </mxCell>
        <mxCell id="a_u_-c7IayEmLX05P0dK-3" value="is exist&lt;br&gt;otn_alarm&lt;br&gt;(alarmMd5)" style="rhombus;whiteSpace=wrap;html=1;shadow=0;fontFamily=Helvetica;fontSize=12;align=center;strokeWidth=1;spacing=6;spacingTop=-4;" vertex="1" parent="WIyWlLk6GJQsqaUBKTNV-1">
          <mxGeometry x="401.5" y="304.5" width="151" height="111" as="geometry" />
        </mxCell>
        <mxCell id="a_u_-c7IayEmLX05P0dK-10" style="edgeStyle=orthogonalEdgeStyle;rounded=0;orthogonalLoop=1;jettySize=auto;html=1;entryX=0.5;entryY=0;entryDx=0;entryDy=0;" edge="1" parent="WIyWlLk6GJQsqaUBKTNV-1" source="a_u_-c7IayEmLX05P0dK-8" target="a_u_-c7IayEmLX05P0dK-9">
          <mxGeometry relative="1" as="geometry" />
        </mxCell>
        <mxCell id="a_u_-c7IayEmLX05P0dK-8" value="update&amp;nbsp; otn_alarm_sublist" style="rounded=1;whiteSpace=wrap;html=1;fontSize=12;glass=0;strokeWidth=1;shadow=0;" vertex="1" parent="WIyWlLk6GJQsqaUBKTNV-1">
          <mxGeometry x="192" y="340" width="126" height="40" as="geometry" />
        </mxCell>
        <mxCell id="a_u_-c7IayEmLX05P0dK-11" style="edgeStyle=orthogonalEdgeStyle;rounded=0;orthogonalLoop=1;jettySize=auto;html=1;" edge="1" parent="WIyWlLk6GJQsqaUBKTNV-1" source="a_u_-c7IayEmLX05P0dK-9">
          <mxGeometry relative="1" as="geometry">
            <mxPoint x="256" y="600" as="targetPoint" />
          </mxGeometry>
        </mxCell>
        <mxCell id="a_u_-c7IayEmLX05P0dK-14" value="Yes" style="edgeLabel;html=1;align=center;verticalAlign=middle;resizable=0;points=[];" vertex="1" connectable="0" parent="a_u_-c7IayEmLX05P0dK-11">
          <mxGeometry x="0.0924" y="2" relative="1" as="geometry">
            <mxPoint y="1" as="offset" />
          </mxGeometry>
        </mxCell>
        <mxCell id="a_u_-c7IayEmLX05P0dK-9" value="is exist&lt;br&gt;otn_alarm&lt;br&gt;(alarmMd5)" style="rhombus;whiteSpace=wrap;html=1;shadow=0;fontFamily=Helvetica;fontSize=12;align=center;strokeWidth=1;spacing=6;spacingTop=-4;" vertex="1" parent="WIyWlLk6GJQsqaUBKTNV-1">
          <mxGeometry x="180" y="430" width="151" height="111" as="geometry" />
        </mxCell>
        <mxCell id="a_u_-c7IayEmLX05P0dK-12" value="update&amp;nbsp; otn_alarm" style="rounded=1;whiteSpace=wrap;html=1;fontSize=12;glass=0;strokeWidth=1;shadow=0;" vertex="1" parent="WIyWlLk6GJQsqaUBKTNV-1">
          <mxGeometry x="192" y="600" width="126" height="40" as="geometry" />
        </mxCell>
        <mxCell id="a_u_-c7IayEmLX05P0dK-20" value="insert&amp;nbsp; &lt;br&gt;otn_alarm" style="rounded=1;whiteSpace=wrap;html=1;fontSize=12;glass=0;strokeWidth=1;shadow=0;" vertex="1" parent="WIyWlLk6GJQsqaUBKTNV-1">
          <mxGeometry x="670" y="340" width="126" height="40" as="geometry" />
        </mxCell>
        <mxCell id="a_u_-c7IayEmLX05P0dK-24" value="&amp;nbsp;alarm_num +1&lt;br&gt;otn_alarm" style="rounded=1;whiteSpace=wrap;html=1;" vertex="1" parent="WIyWlLk6GJQsqaUBKTNV-1">
          <mxGeometry x="420" y="500" width="120" height="60" as="geometry" />
        </mxCell>
        <mxCell id="a_u_-c7IayEmLX05P0dK-25" value="&lt;h1&gt;Otn 活跃告警入库&lt;/h1&gt;&lt;p&gt;&amp;nbsp; &amp;nbsp; &amp;nbsp; &amp;nbsp;如果子表不存在，子表插入新数据。子表不存在，校验父表是否存在，不存在直接插入新数据，存在告警次数+1；&lt;/p&gt;&lt;p&gt;&amp;nbsp; &amp;nbsp; &amp;nbsp; &amp;nbsp;如果子表存在，更新子表数据，父表更新操作时间。&lt;/p&gt;" style="text;html=1;strokeColor=none;fillColor=none;spacing=5;spacingTop=-20;whiteSpace=wrap;overflow=hidden;rounded=0;" vertex="1" parent="WIyWlLk6GJQsqaUBKTNV-1">
          <mxGeometry x="360" y="76" width="410" height="120" as="geometry" />
        </mxCell>
        <mxCell id="a_u_-c7IayEmLX05P0dK-27" value="System Auto&amp;nbsp;&lt;span style=&quot;color: rgb(32 , 33 , 36) ; font-family: inherit ; text-align: left&quot;&gt;&lt;font style=&quot;font-size: 15px&quot;&gt;Inspection&lt;/font&gt;&lt;/span&gt;" style="rounded=1;whiteSpace=wrap;html=1;" vertex="1" parent="WIyWlLk6GJQsqaUBKTNV-1">
          <mxGeometry x="-150" y="50" width="120" height="60" as="geometry" />
        </mxCell>
      </root>
    </mxGraphModel>
  </diagram>
</mxfile>
